<svg xmlns="http://www.w3.org/2000/svg" viewBox="0 0 128 128">
  <defs><linearGradient id="a" x1="14" y1="8" x2="114" y2="120" gradientUnits="userSpaceOnUse"><stop stop-color="#4b86b4"/><stop offset="1" stop-color="#245174"/></linearGradient></defs>
  <rect x="4" y="4" width="120" height="120" rx="26" fill="url(#a)"/>
  <path d="M36 45c2-17 15-25 29-25 19 0 31 13 31 32 0 12-4 21-13 28l-2 22-13 6-2-25c-5 2-12 2-17-1-11-6-17-20-13-37Z" fill="#fff" opacity=".96"/>
  <path d="M48 45c5-10 12-15 22-15 12 0 20 9 20 22 0 10-4 16-12 22l-2 19-4 2-2-23c-7 3-14 2-19-3-5-5-7-15-3-24Z" fill="none" stroke="#336791" stroke-width="5" stroke-linecap="round" stroke-linejoin="round"/>
  <circle cx="74" cy="45" r="3.5" fill="#336791"/>
  <path d="M70 72c8 2 15 0 21-4" fill="none" stroke="#336791" stroke-width="5" stroke-linecap="round"/>
</svg>
